<svg width="194" height="33" viewBox="0 0 194 33" fill="none" xmlns="http://www.w3.org/2000/svg">
<g clip-path="url(#clip0_208_589)">
<path fill-rule="evenodd" clip-rule="evenodd" d="M33.1649 18.6033C32.7221 19.031 32.5209 19.6472 32.6246 20.2516L33.2935 24.1189C33.5019 25.3228 32.5375 26.3005 31.4435 26.3005C31.1553 26.3005 30.8577 26.2323 30.5694 26.0822L27.0697 24.2562C26.7959 24.114 26.4963 24.0429 26.1955 24.0429C25.8959 24.0429 25.5962 24.114 25.3224 24.2562L21.8227 26.0822C21.5345 26.2323 21.2368 26.3005 20.9486 26.3005C19.8546 26.3005 18.8902 25.3228 19.0987 24.1189L19.7675 20.2516C19.8712 19.6472 19.67 19.031 19.2272 18.6033L16.3953 15.8648C15.2816 14.7874 15.8966 12.91 17.4354 12.6878L21.3488 12.1239C21.9606 12.036 22.4895 11.6548 22.7622 11.1047L24.5126 7.587C24.8568 6.89472 25.5267 6.54907 26.1955 6.54907C26.8654 6.54907 27.5353 6.89472 27.8795 7.587L29.6299 11.1047C29.9026 11.6548 30.4315 12.036 31.0433 12.1239L34.9567 12.6878C36.4956 12.91 37.1105 14.7874 35.9968 15.8648L33.1649 18.6033Z" fill="white"/>
<path d="M48.7556 10.9129V7.27818C48.7556 3.26088 45.4974 0 41.4791 0V3.64018C43.4869 3.64018 45.1176 5.2698 45.1176 7.27818V10.9129C45.1176 13.0992 46.1016 15.0383 47.6281 16.3726C46.1016 17.7065 45.1176 19.6428 45.1176 21.8302V25.4682C45.1176 27.4776 43.4869 29.1067 41.4774 29.1067V32.7453C45.4936 32.7453 48.7556 29.4888 48.7556 25.4682V21.8302C48.7556 19.8207 50.3863 18.1916 52.3941 18.1916V14.5515C50.383 14.5515 48.7556 12.9218 48.7556 10.9129Z" fill="white"/>
<path d="M7.27873 10.9151V7.27655C7.27873 5.26708 8.90944 3.638 10.9189 3.638V0C6.90052 0 3.64018 3.25652 3.64018 7.27655L3.63855 10.9151C3.63855 12.9246 2.00947 14.5531 0 14.5531V18.1916L0.00163741 18.1933C2.01111 18.1933 3.64018 19.8223 3.64018 21.8318V25.4665C3.64018 29.4833 6.8967 32.7453 10.9167 32.7453V29.1051C8.90726 29.1051 7.27873 27.476 7.27873 25.4665V21.8318C7.27873 19.645 6.29419 17.7065 4.76826 16.3726C6.29419 15.0383 7.27873 13.1008 7.27873 10.9151Z" fill="white"/>
<path d="M86.6573 26.2573C86.3669 26.6122 85.9689 26.9726 85.4634 27.3383C84.9579 27.7039 84.3609 28.032 83.6726 28.3224C82.9735 28.6236 82.1937 28.8656 81.3332 29.0484C80.4728 29.2312 79.5478 29.3227 78.5583 29.3227C77.6978 29.3227 76.8858 29.2205 76.1221 29.0161C75.3692 28.8225 74.6755 28.5375 74.0409 28.1611C73.4171 27.7739 72.847 27.3006 72.3307 26.7413C71.8252 26.182 71.395 25.5421 71.0401 24.8214C70.6313 24.0255 70.3194 23.1274 70.1043 22.1271C69.9 21.1269 69.7978 20.0405 69.7978 18.8682V15.6737C69.7978 14.5552 69.9 13.5172 70.1043 12.56C70.3087 11.592 70.5991 10.7154 70.9755 9.93023C71.3305 9.23111 71.7392 8.6019 72.2017 8.04261C72.6749 7.48332 73.1912 6.99931 73.7505 6.5906C74.4066 6.1281 75.1218 5.77854 75.8962 5.54192C76.6706 5.3053 77.4881 5.18698 78.3485 5.18698C79.6715 5.18698 80.8223 5.3537 81.8011 5.68712C82.7906 6.02055 83.6242 6.49917 84.3018 7.123C84.9794 7.75758 85.5064 8.52661 85.8829 9.43009C86.2701 10.3336 86.5228 11.35 86.6411 12.4793H82.2206C82.1453 11.9093 82.027 11.4038 81.8656 10.9628C81.715 10.5218 81.5053 10.1507 81.2364 9.84956C80.9353 9.51613 80.5534 9.26875 80.0909 9.10742C79.6392 8.93533 79.096 8.84928 78.4615 8.84928C78.1173 8.84928 77.7839 8.90306 77.4612 9.01062C77.1385 9.11818 76.8374 9.27413 76.5577 9.47849C76.192 9.75814 75.8586 10.1238 75.5574 10.5756C75.267 11.0273 75.025 11.5597 74.8314 12.1728C74.6808 12.646 74.5625 13.1731 74.4765 13.7539C74.4012 14.3347 74.3636 14.9639 74.3636 15.6415V18.8682C74.3636 19.7179 74.4173 20.4923 74.5249 21.1914C74.6432 21.8905 74.8045 22.509 75.0089 23.0467C75.138 23.3587 75.2832 23.6491 75.4445 23.918C75.6166 24.1761 75.8048 24.4073 76.0092 24.6117C76.3533 24.9559 76.7513 25.2194 77.203 25.4022C77.6655 25.5743 78.1872 25.6657 78.768 25.6765C79.1229 25.6765 79.4725 25.6496 79.8167 25.5958C80.1608 25.5421 80.4835 25.4668 80.7847 25.37C81.0858 25.2732 81.3493 25.1656 81.5752 25.0473C81.8118 24.9182 81.9893 24.7838 82.1076 24.644L82.1238 20.3847H78.2356V16.9967H86.6411L86.6573 26.2573ZM91.707 11.5436H101.21V25.3538H105.937V29H91.707V25.3538H96.6762V15.2059H91.707V11.5436ZM96.3535 7.0746C96.3535 6.73042 96.4126 6.41313 96.531 6.12273C96.66 5.82157 96.8375 5.56343 97.0634 5.34832C97.2892 5.14396 97.5581 4.98263 97.87 4.86431C98.1927 4.746 98.5476 4.68685 98.9348 4.68685C99.7308 4.68685 100.36 4.91271 100.822 5.36445C101.296 5.80543 101.532 6.37548 101.532 7.0746C101.532 7.77372 101.296 8.34915 100.822 8.80088C100.36 9.24187 99.7308 9.46236 98.9348 9.46236C98.5476 9.46236 98.1927 9.4032 97.87 9.28489C97.5581 9.16658 97.2892 8.99986 97.0634 8.78475C96.8375 8.58039 96.66 8.33301 96.531 8.04261C96.4126 7.74145 96.3535 7.41878 96.3535 7.0746ZM118.585 7.2682V11.5436H125.103V14.8509H118.585V22.353C118.585 22.9876 118.655 23.52 118.795 23.9502C118.946 24.3697 119.155 24.7031 119.424 24.9505C119.693 25.2086 120.016 25.3915 120.392 25.499C120.78 25.6066 121.21 25.6604 121.683 25.6604C122.027 25.6604 122.377 25.6442 122.732 25.612C123.097 25.5797 123.447 25.5367 123.78 25.4829C124.103 25.4399 124.404 25.3915 124.684 25.3377C124.974 25.2839 125.222 25.2301 125.426 25.1764L125.862 28.2579C125.55 28.4407 125.184 28.602 124.765 28.7419C124.345 28.8709 123.899 28.9785 123.425 29.0645C122.952 29.1506 122.457 29.2151 121.941 29.2581C121.436 29.3119 120.936 29.3388 120.441 29.3388C119.484 29.3388 118.612 29.2151 117.827 28.9677C117.053 28.7096 116.391 28.3116 115.843 27.7739C115.283 27.2468 114.853 26.5746 114.552 25.7572C114.251 24.929 114.1 23.9395 114.1 22.7886V14.8509H110.115V11.5436H114.1V7.2682H118.585ZM144.948 19.2715H134.88V29H130.331V5.50965H146.206V9.20422H134.88V15.5931H144.948V19.2715ZM160.952 29C160.844 28.7849 160.753 28.5375 160.678 28.2579C160.602 27.9782 160.538 27.6824 160.484 27.3705C160.237 27.6394 159.952 27.8922 159.629 28.1288C159.306 28.3654 158.951 28.5698 158.564 28.7419C158.166 28.9247 157.731 29.0645 157.257 29.1613C156.784 29.2689 156.273 29.3227 155.725 29.3227C154.832 29.3227 154.009 29.1936 153.256 28.9355C152.514 28.6773 151.874 28.317 151.336 27.8545C150.799 27.392 150.379 26.8435 150.078 26.2089C149.777 25.5636 149.626 24.8645 149.626 24.1116C149.626 23.1435 149.814 22.2885 150.191 21.5463C150.567 20.7934 151.132 20.175 151.885 19.691C152.563 19.25 153.396 18.9166 154.386 18.6907C155.386 18.4541 156.531 18.3358 157.822 18.3358H160.323V17.3032C160.323 16.8945 160.258 16.5288 160.129 16.2062C160 15.8727 159.806 15.5877 159.548 15.3511C159.279 15.1037 158.941 14.9155 158.532 14.7864C158.134 14.6466 157.666 14.5767 157.128 14.5767C156.655 14.5767 156.246 14.6358 155.902 14.7541C155.558 14.8617 155.278 15.0177 155.063 15.222C154.87 15.4049 154.724 15.6253 154.628 15.8835C154.542 16.1416 154.499 16.4266 154.499 16.7386H150.013C150.013 15.9964 150.175 15.2919 150.497 14.6251C150.831 13.9582 151.315 13.372 151.949 12.8665C152.573 12.361 153.337 11.963 154.24 11.6726C155.155 11.3715 156.198 11.2209 157.37 11.2209C158.424 11.2209 159.403 11.35 160.307 11.6081C161.221 11.8662 162.011 12.2481 162.678 12.7536C163.345 13.2591 163.867 13.8991 164.243 14.6735C164.62 15.4371 164.808 16.3245 164.808 17.3355V24.8214C164.808 25.7572 164.867 26.5316 164.985 27.1446C165.104 27.7577 165.276 28.2847 165.502 28.7257V29H160.952ZM156.677 25.854C157.128 25.854 157.548 25.8002 157.935 25.6926C158.322 25.5851 158.672 25.4453 158.984 25.2732C159.296 25.1011 159.564 24.9075 159.79 24.6924C160.016 24.4665 160.194 24.2406 160.323 24.0148V21.0139H158.032C157.333 21.0139 156.736 21.0838 156.241 21.2237C155.746 21.3527 155.343 21.5356 155.031 21.7722C154.719 22.0196 154.488 22.3154 154.337 22.6595C154.187 22.993 154.111 23.3587 154.111 23.7566C154.111 24.0685 154.165 24.3589 154.273 24.6278C154.391 24.886 154.558 25.1065 154.773 25.2893C154.988 25.4614 155.251 25.6012 155.563 25.7088C155.886 25.8056 156.257 25.854 156.677 25.854ZM175.44 29L168.777 11.5436H173.455L177.295 23.8534L177.537 25.0796L177.779 23.8534L181.603 11.5436H186.282L179.651 29H175.44Z" fill="white"/>
</g>
<defs>
<clipPath id="clip0_208_589">
<rect width="194" height="32.5693" fill="white"/>
</clipPath>
</defs>
</svg>
